<mxfile host="app.diagrams.net" modified="2023-08-25T14:13:38.271Z" agent="Mozilla/5.0 (X11; Linux x86_64; rv:103.0) Gecko/20100101 Firefox/103.0" etag="dxjLbxYZ8jfNOz_N5Dle" version="21.6.9" type="github">
  <diagram id="R2lEEEUBdFMjLlhIrx00" name="Page-1">
    <mxGraphModel dx="1434" dy="718" grid="1" gridSize="10" guides="1" tooltips="1" connect="1" arrows="1" fold="1" page="1" pageScale="1" pageWidth="850" pageHeight="1100" math="0" shadow="0" extFonts="Permanent Marker^https://fonts.googleapis.com/css?family=Permanent+Marker">
      <root>
        <mxCell id="0" />
        <mxCell id="1" parent="0" />
        <mxCell id="zqBZ5iYaBa_0F9jUxMVS-51" style="edgeStyle=orthogonalEdgeStyle;rounded=0;orthogonalLoop=1;jettySize=auto;html=1;exitX=1;exitY=0.5;exitDx=0;exitDy=0;" edge="1" parent="1" source="zqBZ5iYaBa_0F9jUxMVS-2">
          <mxGeometry relative="1" as="geometry">
            <mxPoint x="420" y="125" as="targetPoint" />
          </mxGeometry>
        </mxCell>
        <mxCell id="zqBZ5iYaBa_0F9jUxMVS-53" value="N" style="edgeLabel;html=1;align=center;verticalAlign=middle;resizable=0;points=[];" vertex="1" connectable="0" parent="zqBZ5iYaBa_0F9jUxMVS-51">
          <mxGeometry x="-0.3087" y="-1" relative="1" as="geometry">
            <mxPoint as="offset" />
          </mxGeometry>
        </mxCell>
        <mxCell id="zqBZ5iYaBa_0F9jUxMVS-2" value="" style="rhombus;whiteSpace=wrap;html=1;" vertex="1" parent="1">
          <mxGeometry x="300" y="85" width="80" height="80" as="geometry" />
        </mxCell>
        <mxCell id="zqBZ5iYaBa_0F9jUxMVS-5" value="" style="endArrow=none;html=1;rounded=0;dashed=1;dashPattern=1 2;" edge="1" parent="1">
          <mxGeometry relative="1" as="geometry">
            <mxPoint x="130" y="130" as="sourcePoint" />
            <mxPoint x="130" y="130" as="targetPoint" />
            <Array as="points" />
          </mxGeometry>
        </mxCell>
        <mxCell id="zqBZ5iYaBa_0F9jUxMVS-48" style="edgeStyle=orthogonalEdgeStyle;rounded=0;orthogonalLoop=1;jettySize=auto;html=1;exitX=1;exitY=0.5;exitDx=0;exitDy=0;entryX=0;entryY=0.5;entryDx=0;entryDy=0;" edge="1" parent="1" source="zqBZ5iYaBa_0F9jUxMVS-31" target="zqBZ5iYaBa_0F9jUxMVS-2">
          <mxGeometry relative="1" as="geometry" />
        </mxCell>
        <mxCell id="zqBZ5iYaBa_0F9jUxMVS-52" value="1" style="edgeLabel;html=1;align=center;verticalAlign=middle;resizable=0;points=[];" vertex="1" connectable="0" parent="zqBZ5iYaBa_0F9jUxMVS-48">
          <mxGeometry x="0.1368" y="-2" relative="1" as="geometry">
            <mxPoint as="offset" />
          </mxGeometry>
        </mxCell>
        <mxCell id="zqBZ5iYaBa_0F9jUxMVS-31" value="" style="swimlane;whiteSpace=wrap;html=1;" vertex="1" parent="1">
          <mxGeometry x="10" y="80" width="200" height="100" as="geometry" />
        </mxCell>
        <mxCell id="zqBZ5iYaBa_0F9jUxMVS-37" value="ESCOLA" style="text;html=1;align=center;verticalAlign=middle;resizable=0;points=[];autosize=1;strokeColor=none;fillColor=none;" vertex="1" parent="zqBZ5iYaBa_0F9jUxMVS-31">
          <mxGeometry x="65" width="70" height="30" as="geometry" />
        </mxCell>
        <mxCell id="zqBZ5iYaBa_0F9jUxMVS-42" value="TEM" style="text;html=1;align=center;verticalAlign=middle;resizable=0;points=[];autosize=1;strokeColor=none;fillColor=none;" vertex="1" parent="1">
          <mxGeometry x="315" y="110" width="50" height="30" as="geometry" />
        </mxCell>
        <mxCell id="zqBZ5iYaBa_0F9jUxMVS-63" style="edgeStyle=orthogonalEdgeStyle;rounded=0;orthogonalLoop=1;jettySize=auto;html=1;entryX=0;entryY=0.413;entryDx=0;entryDy=0;entryPerimeter=0;" edge="1" parent="1" source="zqBZ5iYaBa_0F9jUxMVS-40" target="zqBZ5iYaBa_0F9jUxMVS-58">
          <mxGeometry relative="1" as="geometry" />
        </mxCell>
        <mxCell id="zqBZ5iYaBa_0F9jUxMVS-66" value="N" style="edgeLabel;html=1;align=center;verticalAlign=middle;resizable=0;points=[];" vertex="1" connectable="0" parent="zqBZ5iYaBa_0F9jUxMVS-63">
          <mxGeometry x="-0.159" relative="1" as="geometry">
            <mxPoint as="offset" />
          </mxGeometry>
        </mxCell>
        <mxCell id="zqBZ5iYaBa_0F9jUxMVS-68" style="edgeStyle=orthogonalEdgeStyle;rounded=0;orthogonalLoop=1;jettySize=auto;html=1;exitX=0;exitY=1;exitDx=0;exitDy=0;entryX=0.938;entryY=0.388;entryDx=0;entryDy=0;entryPerimeter=0;" edge="1" parent="1" source="zqBZ5iYaBa_0F9jUxMVS-40" target="zqBZ5iYaBa_0F9jUxMVS-67">
          <mxGeometry relative="1" as="geometry" />
        </mxCell>
        <mxCell id="zqBZ5iYaBa_0F9jUxMVS-69" value="N" style="edgeLabel;html=1;align=center;verticalAlign=middle;resizable=0;points=[];" vertex="1" connectable="0" parent="zqBZ5iYaBa_0F9jUxMVS-68">
          <mxGeometry x="-0.2405" y="1" relative="1" as="geometry">
            <mxPoint as="offset" />
          </mxGeometry>
        </mxCell>
        <mxCell id="zqBZ5iYaBa_0F9jUxMVS-40" value="" style="swimlane;whiteSpace=wrap;html=1;" vertex="1" parent="1">
          <mxGeometry x="420" y="60" width="200" height="110" as="geometry" />
        </mxCell>
        <mxCell id="zqBZ5iYaBa_0F9jUxMVS-41" value="TURMAS" style="text;html=1;align=center;verticalAlign=middle;resizable=0;points=[];autosize=1;strokeColor=none;fillColor=none;" vertex="1" parent="zqBZ5iYaBa_0F9jUxMVS-40">
          <mxGeometry x="60" width="70" height="30" as="geometry" />
        </mxCell>
        <mxCell id="zqBZ5iYaBa_0F9jUxMVS-60" style="edgeStyle=orthogonalEdgeStyle;rounded=0;orthogonalLoop=1;jettySize=auto;html=1;exitX=0.5;exitY=1;exitDx=0;exitDy=0;entryX=1;entryY=0.5;entryDx=0;entryDy=0;" edge="1" parent="1" source="zqBZ5iYaBa_0F9jUxMVS-54" target="zqBZ5iYaBa_0F9jUxMVS-58">
          <mxGeometry relative="1" as="geometry" />
        </mxCell>
        <mxCell id="zqBZ5iYaBa_0F9jUxMVS-65" value="N" style="edgeLabel;html=1;align=center;verticalAlign=middle;resizable=0;points=[];" vertex="1" connectable="0" parent="zqBZ5iYaBa_0F9jUxMVS-60">
          <mxGeometry x="-0.0061" relative="1" as="geometry">
            <mxPoint as="offset" />
          </mxGeometry>
        </mxCell>
        <mxCell id="zqBZ5iYaBa_0F9jUxMVS-54" value="PROF" style="swimlane;whiteSpace=wrap;html=1;" vertex="1" parent="1">
          <mxGeometry x="670" y="120" width="150" height="75" as="geometry" />
        </mxCell>
        <mxCell id="zqBZ5iYaBa_0F9jUxMVS-74" style="edgeStyle=orthogonalEdgeStyle;rounded=0;orthogonalLoop=1;jettySize=auto;html=1;exitX=0.5;exitY=1;exitDx=0;exitDy=0;entryX=0.405;entryY=-0.057;entryDx=0;entryDy=0;entryPerimeter=0;" edge="1" parent="1" source="zqBZ5iYaBa_0F9jUxMVS-58" target="zqBZ5iYaBa_0F9jUxMVS-73">
          <mxGeometry relative="1" as="geometry" />
        </mxCell>
        <mxCell id="zqBZ5iYaBa_0F9jUxMVS-75" value="1" style="edgeLabel;html=1;align=center;verticalAlign=middle;resizable=0;points=[];" vertex="1" connectable="0" parent="zqBZ5iYaBa_0F9jUxMVS-74">
          <mxGeometry x="-0.0651" y="1" relative="1" as="geometry">
            <mxPoint as="offset" />
          </mxGeometry>
        </mxCell>
        <mxCell id="zqBZ5iYaBa_0F9jUxMVS-58" value="MINI" style="rhombus;whiteSpace=wrap;html=1;" vertex="1" parent="1">
          <mxGeometry x="560" y="380" width="80" height="80" as="geometry" />
        </mxCell>
        <mxCell id="zqBZ5iYaBa_0F9jUxMVS-71" style="edgeStyle=orthogonalEdgeStyle;rounded=0;orthogonalLoop=1;jettySize=auto;html=1;entryX=0.455;entryY=0.014;entryDx=0;entryDy=0;entryPerimeter=0;" edge="1" parent="1" source="zqBZ5iYaBa_0F9jUxMVS-67" target="zqBZ5iYaBa_0F9jUxMVS-70">
          <mxGeometry relative="1" as="geometry" />
        </mxCell>
        <mxCell id="zqBZ5iYaBa_0F9jUxMVS-72" value="1" style="edgeLabel;html=1;align=center;verticalAlign=middle;resizable=0;points=[];" vertex="1" connectable="0" parent="zqBZ5iYaBa_0F9jUxMVS-71">
          <mxGeometry x="-0.0433" relative="1" as="geometry">
            <mxPoint as="offset" />
          </mxGeometry>
        </mxCell>
        <mxCell id="zqBZ5iYaBa_0F9jUxMVS-67" value="TEM" style="rhombus;whiteSpace=wrap;html=1;" vertex="1" parent="1">
          <mxGeometry x="210" y="370" width="80" height="80" as="geometry" />
        </mxCell>
        <mxCell id="zqBZ5iYaBa_0F9jUxMVS-70" value="SALA" style="swimlane;whiteSpace=wrap;html=1;" vertex="1" parent="1">
          <mxGeometry x="160" y="540" width="200" height="70" as="geometry" />
        </mxCell>
        <mxCell id="zqBZ5iYaBa_0F9jUxMVS-73" value="Vertical Container" style="swimlane;whiteSpace=wrap;html=1;" vertex="1" parent="1">
          <mxGeometry x="520" y="540" width="200" height="70" as="geometry" />
        </mxCell>
      </root>
    </mxGraphModel>
  </diagram>
</mxfile>
